<svg xmlns="http://www.w3.org/2000/svg" viewBox="0 0 1200 280" role="img" aria-labelledby="title desc">
  <title id="title">Meridian Loom lockup</title>
  <desc id="desc">Meridian warrior mark alongside the Meridian Loom wordmark.</desc>
  <defs>
    <style>
      .bg { fill: #05070b; }
      .frame { fill: none; stroke: #263240; stroke-width: 2; }
      .mk { fill: #e6edf5; }
      .word { fill: #e6edf5; font: 700 76px/1 'Space Grotesk', Inter, sans-serif; letter-spacing: 5px; }
      .accent { fill: #8ca0b3; font: 500 18px/1 'JetBrains Mono', monospace; letter-spacing: 3.4px; text-transform: uppercase; }
      .rail { fill: #4fc3f7; opacity: 0.9; }
      .glow { fill: #163042; opacity: 0.9; }
    </style>
  </defs>
  <rect class="bg" width="1200" height="280" rx="20"/>
  <rect class="frame" x="10" y="10" width="1180" height="260" rx="18"/>
  <rect class="glow" x="0" y="0" width="1200" height="280" rx="20"/>
  <rect class="rail" x="248" y="36" width="2" height="208"/>
  <g transform="translate(22,12) scale(0.25)">
    <path class="mk" d="M394.4 122c14.8 19.1 57.6 74.6 66.5 86.2l11.2 14.8h-51.5c-28.4 0-51.6.3-51.6.6 0 .6 2.1 3 17 19.6 4.7 5.1 20.7 22.9 35.5 39.4 33.1 36.7 84.3 93.8 87.8 97.9l2.6 3 1.9-2c1.9-2 62.2-69.4 95.6-106.9 9.9-11.1 24.2-26.9 31.8-35.3 7.6-8.3 13.8-15.4 13.8-15.7s-23.2-.6-51.5-.6h-51.6l7.8-10.3c4.2-5.6 16.1-21 26.3-34.2s21.7-28.1 25.5-33c3.7-5 9.8-12.8 13.4-17.5l6.6-8.5-4 3.4c-4.5 3.8-34.9 33-76.4 73.3L523.5 223h-22.7l-27.7-26.8c-23.7-23-37.1-35.8-75-71.6-4.1-3.9-5.4-4.8-3.7-2.6m81.4 148.7.3 13.3H449v-27.1l13.3.3 13.2.3zm99.2-.2V284h-27v-27h27zm-349.5 88.4c-7.7 4.9-13.9 9.3-13.8 9.8s2.6 6.3 5.6 12.8c3 6.6 10.7 23.7 17.2 38s15 33.2 19 42c17.5 38.3 22.3 49 22 49.3-.2.2-6.2-2.1-13.4-5.1S249 500.6 249 501c0 .3 1.2 1.7 2.6 3.1 2.2 2 37 42.6 41.3 48.2l1.4 1.8-5.4-2.2c-13.7-5.4-28.1-10.9-28.7-10.9-.4 0 11.2 11.9 25.8 26.5l26.5 26.6-4.5-1.6c-7-2.5-34.4-10.5-34.7-10.1-.2.2 6.5 6.4 14.9 13.8 8.4 7.5 20.3 18 26.3 23.4 74.3 66.5 102 91.1 103.6 92.2l1.8 1.4 1.4-3.4c.8-1.8 10-22.7 20.4-46.3 10.5-23.7 21.8-49.3 25.2-57l6.1-14-.2-78.4-.3-78.3-6.4 15.8c-9 22.3-38.6 94.7-49.2 120.5l-8.9 21.6 1.9 25.4c1.1 14 2.3 29.7 2.6 34.9s.8 10.6 1 12l.4 2.5-.9-2c-.5-1.1-2.3-7.6-4.1-14.5-1.7-6.9-6.4-24.9-10.4-40.1l-7.4-27.5-19.6-30.5c-10.9-16.7-24.3-37.5-29.9-46.1-5.5-8.7-16-24.9-23.3-36-7.3-11.2-15.5-23.9-18.3-28.3s-8.6-13.4-12.9-20-16.4-25.5-27-42-19.6-30.3-19.9-30.7c-.4-.4-7 3.3-14.7 8.1m555.3-3.6c-2 2.9-8.3 12.6-14 21.7-5.8 9.1-16.1 25-22.8 35.5-6.8 10.4-16.7 25.7-22 34-5.3 8.2-18.8 29.2-30 46.5s-29.1 45-39.7 61.4L633 584.3l-5.7 21.1c-3.1 11.6-8 30.2-10.8 41.3-2.8 11.2-5.5 20.6-5.9 21-.4.5-.5-.3-.2-1.7s1-10.4 1.6-20 1.8-25.5 2.6-35.2c.9-11.3 1.1-18.4.5-19.5-.9-1.8-16.3-39.3-46.6-113.8-9.2-22.5-16.9-41.2-17.1-41.4-.2-.3-.3 35.3-.2 79l.3 79.4 9.6 21.5c5.3 11.8 15.8 35.4 23.3 52.5 17 38.3 19.8 44.5 20.3 44.5.2 0 15.5-13.6 34.1-30.1 18.5-16.6 51.4-45.9 73-65.2 21.6-19.2 39.1-35.1 38.9-35.3-.3-.4-26.3 7.3-33.6 10-2.4.9-4.6 1.6-5 1.6-.3 0 11.3-11.9 25.9-26.5s26.2-26.5 25.9-26.5c-.4 0-28.1 10.8-32.6 12.7-.7.3-1.3.2-1.3-.1 0-.5 22-26.4 38.2-44.9 6.4-7.2 8.4-10.2 5.6-8-2 1.5-24.9 10.5-25.5 10-.2-.3.7-2.8 2.2-5.6 1.4-2.9 4.4-9.3 6.6-14.4 2.3-5.1 6.2-13.9 8.9-19.7s11.4-24.9 19.3-42.5c8-17.6 17.4-38.4 21-46.2l6.5-14.2-4.2-2.7c-3.3-2.2-17.8-11.4-23.2-14.7-.6-.4-2.6 1.5-4.6 4.6m-588.6 24.4-6.2 4.5.5 84.6c.3 46.6.7 101.4 1 121.9l.5 37.1 10.2 15c5.7 8.3 19.7 28.9 31.3 45.9 49.2 72.4 87.3 127.3 86.2 124.3-.7-1.9-49.9-106.2-59.7-126.5-13.7-28.5-16.9-35.6-15.7-34.8.7.4 10.6 6.9 22.1 14.5 11.6 7.5 21.2 13.6 21.4 13.3.2-.2-1.6-3.2-4.1-6.7-2.4-3.5-13.1-19.1-23.8-34.8l-19.3-28.5-.8-29.5c-.4-16.2-1.4-52.9-2.2-81.4l-1.4-51.9-16.3-35.8c-9-19.8-16.6-35.9-16.9-35.8-.3 0-3.3 2.1-6.8 4.6m629.3 1.5c-4 9.1-21.7 47.9-26 57.3l-3.7 8-2.2 81.5-2.1 81.5-5.4 8c-3 4.4-13.7 20.1-23.9 34.8-10.1 14.8-18.2 27-18 27.2.2.3 8.7-5.1 18.9-11.8 10.1-6.8 20.1-13.3 22.2-14.6l3.7-2.3-4.4 9.4c-2.4 5.1-13.7 28.9-25.1 52.8-30.7 64.4-47.6 100.3-47.2 100.6.3.3 20.8-29.1 49.3-71 8.2-12 23-33.6 32.9-48.1s24.1-35.4 31.6-46.4l13.7-20.2.6-34.2c.3-18.8.7-73.8.8-122.2l.3-87.9-6-4.3c-3.3-2.3-6.3-4.2-6.6-4.3-.4 0-1.9 2.8-3.4 6.2"/>
    <path class="mk" d="m487 670.2.1 294.3 12.6 10.7 12.6 10.7 8.6-7.4c4.7-4 10.3-8.8 12.4-10.7l3.8-3.3-.3-294-.3-293.9-12 13.2c-6.6 7.3-12.3 13.1-12.6 13-.4-.2-6.1-6.3-12.8-13.6L487 376zm-184.5 81.5c3.5 7.6 14.4 30.5 24.2 51l17.8 37.2 42.1 36.8c23.1 20.2 51.2 44.9 62.5 54.7 11.2 9.8 21.2 18.6 22.2 19.4l1.7 1.5v-59.9l-65.2-57.1c-35.9-31.4-75.6-66.2-88.1-77.2-12.5-11.1-23-20.1-23.2-20.1s2.5 6.2 6 13.7m401.3 6.9c-25 22.2-107.4 94.3-135.6 118.9l-17.2 15v59.7l1.7-1.3c.9-.8 20.4-17.8 43.2-37.8 22.9-20 51.1-44.8 62.8-55l21.2-18.6 22.7-48c12.5-26.4 23.3-49.2 24.1-50.8.7-1.5 1.2-2.7.9-2.7-.2 0-10.9 9.3-23.8 20.6"/>
  </g>
  <text x="286" y="118" class="word">Meridian Loom</text>
  <text x="290" y="160" class="accent">Experimental Runtime Rehearsal</text>
</svg>
